HIERARCHY
ROOT Hips
{
	OFFSET	0	0	0
	CHANNELS 6  Xposition Yposition Zposition Xrotation Yrotation Zrotation
	JOINT Spine
	{
		OFFSET	0	6.96085	1.39713
		CHANNELS 3  Xrotation Yrotation Zrotation
		JOINT Spine1
		{
			OFFSET	0	11.9146	-2.1276
			CHANNELS 3  Xrotation Yrotation Zrotation
			JOINT Spine2
			{
				OFFSET	0	9.03168	0.96806
				CHANNELS 3  Xrotation Yrotation Zrotation
				JOINT Spine3
				{
					OFFSET	0	10.8082	3.21268
					CHANNELS 3  Xrotation Yrotation Zrotation
					JOINT Spine4
					{
						OFFSET	0	15.9996	-1.63826
						CHANNELS 3  Xrotation Yrotation Zrotation
						JOINT Neck
						{
							OFFSET	0	7.6381	-5.35092
							CHANNELS 3  Xrotation Yrotation Zrotation
							JOINT Head
							{
								OFFSET	0	9.16998	-2.74461
								CHANNELS 3  Xrotation Yrotation Zrotation
								End Site
								{
									OFFSET	0	19.1272	-0.925508
								}
							}
						}
					}
					JOINT LeftShoulder
					{
						OFFSET	-4.59563	19.4463	-9.16997
						CHANNELS 3  Xrotation Yrotation Zrotation
						JOINT LeftArm
						{
							OFFSET	-10.0457	-2.74461	3.52121
							CHANNELS 3  Xrotation Yrotation Zrotation
							JOINT LeftForeArm
							{
								OFFSET	-31.2362	-1.42567	2.22961
								CHANNELS 3  Xrotation Yrotation Zrotation
								JOINT LeftHand
								{
									OFFSET	-26.6039	-1.83848	1.89896
									CHANNELS 3  Xrotation Yrotation Zrotation
									End Site
									{
										OFFSET	-9.70909	-0.670953	0.692979
									}
								}
							}
						}
					}
					JOINT RightShoulder
					{
						OFFSET	4.59563	19.4463	-9.16997
						CHANNELS 3  Xrotation Yrotation Zrotation
						JOINT RightArm
						{
							OFFSET	10.0457	-2.74461	3.52121
							CHANNELS 3  Xrotation Yrotation Zrotation
							JOINT RightForeArm
							{
								OFFSET	31.2362	-1.42567	2.22961
								CHANNELS 3  Xrotation Yrotation Zrotation
								JOINT RightHand
								{
									OFFSET	26.6039	-1.83848	1.89896
									CHANNELS 3  Xrotation Yrotation Zrotation
									End Site
									{
										OFFSET	9.70909	-0.670953	0.692979
									}
								}
							}
						}
					}
				}
			}
		}
	}
	JOINT LeftUpLeg
	{
		OFFSET	-9.47252	-3.48043	-0.698563
		CHANNELS 3  Xrotation Yrotation Zrotation
		JOINT LeftLeg
		{
			OFFSET	-2.10259	-41.1994	-0.644037
			CHANNELS 3  Xrotation Yrotation Zrotation
			JOINT LeftFoot
			{
				OFFSET	-2.05598	-37.8983	3.25925
				CHANNELS 3  Xrotation Yrotation Zrotation
				JOINT LeftToeBase
				{
					OFFSET	0	-4.64446	-12.3357
					CHANNELS 3  Xrotation Yrotation Zrotation
					End Site
					{
						OFFSET	0	-1.85779	-7.43114
					}
				}
			}
		}
	}
	JOINT RightUpLeg
	{
		OFFSET	9.47252	-3.48043	-0.698563
		CHANNELS 3  Xrotation Yrotation Zrotation
		JOINT RightLeg
		{
			OFFSET	2.10259	-41.1994	-0.644037
			CHANNELS 3  Xrotation Yrotation Zrotation
			JOINT RightFoot
			{
				OFFSET	2.05598	-37.8983	3.25925
				CHANNELS 3  Xrotation Yrotation Zrotation
				JOINT RightToeBase
				{
					OFFSET	0	-4.64446	-12.3357
					CHANNELS 3  Xrotation Yrotation Zrotation
					End Site
					{
						OFFSET	0	-1.85779	-7.43114
					}
				}
			}
		}
	}
}
MOTION
Frames: 7
Frame Time: 0.020408
 0 -9.18316 2.93911 -0 0 -0 -0 0 -0 -0 0 -0 -0 0 -0 -0 0 -0 -0 0 -0 -0 0 -0 -0 0 -0 -0 0 -0 -0 0 -0 -0 0 -0 -0 0 -0 -0 0 -0 -0 0 -0 -0 0 -0 -0 0 -0 -0 0 -0 -0 0 -0 -0 0 -0 -0 0 -0 -0 0 -0 -0 0 -0 -0 0 -0 -0 0 -0
 66.4632 67.6929 -119.458 41.8648 -162.268 16.6206 180 -179.997 177.69 154.79 -179.994 176.15 153.353 -179.983 176.15 158.884 -179.997 177.69 1.65067 -0.0221804 -0.769637 28.713 -0.181956 2.22017 8.63857 -3.96269 0.839666 170.727 -152.976 159.518 83.6576 -34.223 10.3309 21.5121 -6.39714 0.552219 -0 -3.03055 -13.7579 174.743 154.978 -168.527 53.4287 36.3231 4.14842 20.8518 15.6959 -3.99317 -0 6.9214 14.8862 104.231 8.17925 -14.0002 102.442 161.348 179.917 179.272 -179.945 173.036 17.6103 0 0 105.154 -16.901 20.4514 101.887 -179.603 -179.857 6.36438 0.0522809 -0.481147 10.6546 0 0
 66.7549 67.8592 -119.723 41.6169 -162.391 16.6883 180 -179.999 177.667 154.917 -179.999 176.112 153.481 -179.996 176.112 158.97 -179.999 177.667 1.69118 -0.0229509 -0.777285 28.7123 -0.162755 1.79932 8.62989 -3.22697 0.679138 170.687 -153.076 159.425 83.4218 -33.3754 11.2275 21.2953 -6.2977 0.579837 -0 -3.2302 -13.7149 174.936 155.565 -168.957 53.9164 36.3873 2.13061 21.007 15.8683 -4.18282 -0 6.79333 14.7414 104.081 8.32336 -14.0615 102.295 159.805 179.893 179.014 -179.983 173.631 17.6155 0 0 104.745 -17.038 20.5114 102.658 -179.253 -179.903 5.90334 0.0605807 -0.262088 10.6562 0 0
 66.8588 67.9843 -119.707 41.5242 -162.298 16.9544 180 -179.997 177.649 155.062 -179.995 176.082 153.629 -179.985 176.082 159.077 -179.997 177.649 1.71407 -0.0234387 -0.783197 28.6383 0.0350732 1.55519 8.60335 -2.60916 0.597549 170.613 -153.102 159.256 83.1526 -32.7106 12.1346 21.0746 -6.59091 0.520616 -0 -3.62654 -13.8228 174.847 156.165 -168.768 54.2714 36.248 0.152375 21.1038 15.5595 -4.0224 -0 6.60701 14.4795 103.995 8.49588 -14.0155 102.288 158.657 179.883 179.033 -179.96 174.372 17.6216 0 0 104.462 -17.1431 20.7149 103.163 -179.221 -179.815 5.60065 0.0212587 -0.0682209 10.6574 0 0
 66.7233 68.131 -119.68 41.5115 -162.448 17.0122 180 -179.992 177.718 155.308 -179.984 176.197 153.869 -179.952 176.197 159.229 -179.992 177.718 1.82576 -0.0242356 -0.760255 28.7154 0.522063 1.4611 8.62469 -1.95761 0.594522 170.671 -153.142 159.387 82.7885 -31.6516 13.1008 20.9165 -6.38775 0.50841 -0 -3.78019 -14.0869 174.618 156.481 -168.267 54.5886 36.0757 -2.05073 21.1745 15.2054 -3.85553 -0 6.55217 14.1065 103.953 8.71494 -14.404 102.884 158.05 179.811 178.984 -179.963 175.187 17.6273 0 0 104.175 -17.1064 20.6906 103.481 -179.188 -179.902 5.47585 -0.0332858 0.131756 10.6582 0 0
 67.0523 68.3118 -119.633 41.5479 -162.645 17.0057 180 -179.998 177.776 155.533 -179.996 176.294 154.109 -179.989 176.294 159.416 -179.998 177.776 1.81458 -0.0234706 -0.740801 28.4711 0.685417 1.23816 8.54833 -1.40293 0.517209 170.657 -152.994 159.357 82.4867 -30.8123 14.1465 20.8026 -6.52475 0.55574 -0 -3.86194 -14.381 174.614 156.816 -168.261 54.705 35.507 -4.05766 21.2342 14.8978 -3.7936 -0 6.54798 13.6431 103.84 8.77131 -14.2825 102.954 157.585 179.832 179.03 -179.982 176.013 17.6319 0 0 103.931 -17.119 20.4221 103.644 -179.462 -179.735 5.27733 -0.0502146 0.284593 10.6592 0 0
 67.0598 68.3993 -119.794 41.4535 -162.932 16.9486 2.87946e-05 0.000762622 -2.16231 155.72 179.998 176.396 154.292 179.995 176.396 159.528 179.999 177.838 1.90738 -0.0239913 -0.720371 28.5617 0.714641 1.03968 8.5734 -1.0394 0.444214 170.808 -152.881 159.702 82.0735 -29.6772 14.9224 20.6953 -6.79772 0.64469 -0 -4.01434 -14.6825 174.61 157.047 -168.256 54.7468 34.7552 -5.74262 21.308 14.8744 -3.80458 -0 6.67698 13.2247 103.776 8.83047 -14.3764 103.056 158.086 179.732 179.238 179.96 176.859 17.6359 0 0 103.654 -17.1716 19.8628 103.886 -179.818 -179.773 5.18182 -0.077479 0.41504 10.6601 0 0
